<svg xmlns="http://www.w3.org/2000/svg" width="880" height="240" viewBox="0 0 880 240" role="img" aria-label="Matthew Eucaristo — AI agents, RL for games, playable things">
<style>
  text { font-family: ui-monospace, SFMono-Regular, 'SF Mono', Menlo, Consolas, 'Liberation Mono', monospace; }
  .cur { animation: blink 1.1s steps(1) infinite; }
  @keyframes blink { 50% { opacity: 0; } }
  .trail { stroke-dasharray: 340; stroke-dashoffset: 340; animation: draw 6s ease-in-out infinite; }
  @keyframes draw { 0% { stroke-dashoffset: 340; } 70%,100% { stroke-dashoffset: 0; } }
  @media (prefers-reduced-motion: reduce) { .cur, .trail { animation: none; stroke-dashoffset: 0; } }
</style>
<rect x="0.5" y="0.5" width="879" height="239" rx="12" fill="#ffffff" stroke="#d0d7de"/>
<path d="M0.5 12.5 a12 12 0 0 1 12 -12 h855 a12 12 0 0 1 12 12 v19.5 h-879 z" fill="#f6f8fa"/>
<line x1="0.5" y1="32" x2="879.5" y2="32" stroke="#d0d7de"/>
<circle cx="20" cy="16.5" r="5" fill="#ff5f57"/><circle cx="37" cy="16.5" r="5" fill="#febc2e"/><circle cx="54" cy="16.5" r="5" fill="#28c840"/>
<text x="440.0" y="21" text-anchor="middle" font-size="12" fill="#656d76">matthew@eucaristo: ~</text>
<text x="32" y="70" font-size="14" fill="#656d76"><tspan fill="#1a7f37">~</tspan> $ whoami</text>
<text x="32" y="108" font-size="30" font-weight="700" fill="#1f2328">Matthew Eucaristo</text>
<text x="32" y="138" font-size="15" fill="#1f2328">AI agents · RL for games · playable things</text>
<text x="32" y="162" font-size="13" fill="#656d76">engineer @ GeniusGrowthAI — Indonesia</text>
<text x="32" y="206" font-size="14" fill="#656d76"><tspan fill="#1a7f37">~</tspan> $ <tspan fill="#9a6700">life</tspan>: str = <tspan fill="#1a7f37">"gift"</tspan><tspan class="cur" fill="#1f2328"> ▍</tspan></text>
<g stroke="#d0d7de" stroke-width="2" stroke-linecap="round" fill="none"><line x1="640" y1="50" x2="816" y2="50"/><line x1="640" y1="182" x2="816" y2="182"/><line x1="640" y1="50" x2="640" y2="160"/><line x1="816" y1="72" x2="816" y2="182"/><line x1="662" y1="72" x2="706" y2="72"/><line x1="728" y1="50" x2="728" y2="72"/><line x1="750" y1="72" x2="794" y2="72"/><line x1="662" y1="72" x2="662" y2="138"/><line x1="684" y1="94" x2="684" y2="160"/><line x1="706" y1="94" x2="750" y2="94"/><line x1="772" y1="94" x2="772" y2="138"/><line x1="706" y1="116" x2="750" y2="116"/><line x1="794" y1="94" x2="794" y2="160"/><line x1="706" y1="138" x2="706" y2="182"/><line x1="728" y1="138" x2="772" y2="138"/><line x1="662" y1="160" x2="684" y2="160"/><line x1="750" y1="160" x2="794" y2="160"/><line x1="728" y1="138" x2="728" y2="160"/></g>
<path class="trail" d="M629 171 L651 171 L651 61 L717 61 L717 83 L761 83 L805 83 L805 61 L829 61" fill="none" stroke="#1a7f37" stroke-opacity="0.45" stroke-width="2" stroke-linecap="round" stroke-linejoin="round"/>
<circle r="4.5" fill="#1a7f37"><animateMotion dur="6s" repeatCount="indefinite" keyPoints="0;1;1" keyTimes="0;0.7;1" calcMode="linear" path="M629 171 L651 171 L651 61 L717 61 L717 83 L761 83 L805 83 L805 61 L829 61"/></circle>
<text x="728.0" y="208" text-anchor="middle" font-size="11" fill="#656d76">agent.solve(maze) # ok</text>
</svg>
