<svg width="1200" height="320" viewBox="0 0 1200 320" fill="none" xmlns="http://www.w3.org/2000/svg">
  <defs>
    <linearGradient id="bg" x1="0" y1="0" x2="1200" y2="320" gradientUnits="userSpaceOnUse">
      <stop stop-color="#0b1220" />
      <stop offset="0.5" stop-color="#0f2a2e" />
      <stop offset="1" stop-color="#14532d" />
    </linearGradient>
    <linearGradient id="accent" x1="0" y1="0" x2="1" y2="1">
      <stop stop-color="#22c55e" />
      <stop offset="1" stop-color="#f59e0b" />
    </linearGradient>
    <pattern id="grid" width="24" height="24" patternUnits="userSpaceOnUse">
      <path d="M24 0H0V24" fill="none" stroke="#1f2a44" stroke-width="1" />
    </pattern>
    <filter id="blur" x="-50%" y="-50%" width="200%" height="200%">
      <feGaussianBlur in="SourceGraphic" stdDeviation="22" />
    </filter>
  </defs>

  <rect width="1200" height="320" rx="24" fill="url(#bg)" />
  <rect width="1200" height="320" rx="24" fill="url(#grid)" opacity="0.35" />

  <circle cx="1050" cy="70" r="58" fill="#22c55e" opacity="0.6" filter="url(#blur)" />
  <circle cx="220" cy="260" r="80" fill="#f59e0b" opacity="0.45" filter="url(#blur)" />

  <g opacity="0.6" stroke="#2dd4bf" stroke-width="2">
    <path d="M40 80H220L260 40H520" />
    <path d="M680 260H940L980 220H1160" />
    <circle cx="220" cy="80" r="6" fill="#2dd4bf" />
    <circle cx="980" cy="220" r="6" fill="#2dd4bf" />
  </g>

  <rect x="80" y="70" width="1040" height="180" rx="18" fill="#0b1220" opacity="0.65" stroke="url(#accent)" stroke-width="1.5" />

  <text x="120" y="150" fill="#e2e8f0" font-size="44" font-family="Verdana, Arial, sans-serif" font-weight="700">
    Matthew Eucaristo
  </text>
  <text x="120" y="188" fill="#94a3b8" font-size="18" font-family="Verdana, Arial, sans-serif">
    Founder @ GeniusGrowthAI  •  Game Dev (Unreal Engine)  •  AI / RL for Games  •  Web3 Games
  </text>
  <text x="120" y="220" fill="#22c55e" font-size="16" font-family="Verdana, Arial, sans-serif">
    Building intelligent learning systems and next-gen interactive worlds
  </text>

  <g opacity="0.5" stroke="#f59e0b" stroke-width="2">
    <path d="M900 110h170" />
    <path d="M900 140h120" />
    <path d="M900 170h150" />
  </g>
</svg>
